<?xml version="1.0" encoding="UTF-8"?><svg id="Ebene_1" xmlns="http://www.w3.org/2000/svg" width="293.27" height="60.02" viewBox="0 0 293.27 60.02"><defs><style>.cls-1{fill:#6f6f6f;}</style></defs><path class="cls-1" d="m145.37,16.8c-.9-.23-1.75-.63-2.5-1.17l1.13-2.44c.65.47,1.37.83,2.14,1.06.8.26,1.64.39,2.48.4.69.04,1.38-.1,2-.41.4-.21.66-.63.67-1.09,0-.33-.14-.63-.4-.83-.29-.24-.63-.42-1-.53-.54-.17-1.09-.32-1.64-.44-.89-.21-1.77-.46-2.63-.76-.67-.26-1.27-.67-1.74-1.22-.52-.63-.78-1.43-.74-2.24,0-.79.23-1.56.67-2.21.49-.71,1.19-1.26,2-1.57,1.03-.42,2.14-.61,3.25-.58.88,0,1.76.1,2.61.32.79.18,1.55.5,2.25.92l-1,2.46c-1.18-.71-2.54-1.09-3.92-1.1-.7-.05-1.39.1-2,.44-.41.25-.65.71-.63,1.2.03.45.32.84.75,1,.74.3,1.51.53,2.29.69.89.19,1.76.45,2.62.76.68.24,1.28.66,1.76,1.2.51.62.77,1.41.73,2.22,0,.78-.23,1.55-.68,2.19-.5.71-1.19,1.25-2,1.57-1.03.41-2.14.61-3.25.58-1.09.01-2.17-.13-3.22-.42Z"/><path class="cls-1" d="m156.73,3.01h3.27v14h-3.25l-.02-14Z"/><path class="cls-1" d="m166.2,5.65h-4.49v-2.64h12.2v2.64h-4.47v11.36h-3.24V5.65Z"/><path class="cls-1" d="m186.5,14.41v2.6h-10.85V3.01h10.58v2.6h-7.35v3h6.49v2.52h-6.49v3.28h7.62Z"/><path class="cls-1" d="m144,23.01h3.24v14h-3.24v-14Z"/><path class="cls-1" d="m163.38,23.01v14h-2.66l-7-8.5v8.5h-3.2v-14h2.67l7,8.5v-8.5h3.19Z"/><path class="cls-1" d="m169.93,25.61v3.7h6.49v2.6h-6.49v5.1h-3.23v-14h10.57v2.6h-7.34Z"/><path class="cls-1" d="m182.18,36.31c-3.48-1.86-4.8-6.18-2.94-9.66.67-1.25,1.69-2.27,2.94-2.94,1.21-.64,2.56-.96,3.93-.94,1.37-.02,2.71.3,3.92.94,3.48,1.86,4.8,6.18,2.94,9.66-.67,1.25-1.69,2.27-2.94,2.94-1.21.64-2.55.96-3.92.94-1.37.02-2.72-.3-3.93-.94Zm6.18-2.39c.66-.37,1.2-.92,1.56-1.59.77-1.45.77-3.19,0-4.64-.36-.67-.9-1.22-1.56-1.59-1.4-.76-3.09-.76-4.49,0-.66.37-1.2.92-1.56,1.59-.77,1.45-.77,3.19,0,4.64.36.67.9,1.22,1.56,1.59,1.4.76,3.09.76,4.49,0Z"/><path class="cls-1" d="m205.13,37.01l-2.7-3.9h-3v3.9h-3.23v-14h6.05c1.11-.03,2.21.19,3.23.62.86.36,1.6.98,2.11,1.76.51.81.77,1.75.74,2.7.03.95-.23,1.89-.75,2.69-.53.77-1.27,1.37-2.13,1.73l3.14,4.5h-3.46Zm-.82-10.73c-.64-.46-1.43-.69-2.22-.63h-2.64v4.88h2.64c.79.06,1.58-.17,2.22-.64,1-.96,1.03-2.54.08-3.53-.02-.03-.05-.05-.08-.08Z"/><path class="cls-1" d="m223.65,37.01v-8.4l-4.12,6.92h-1.46l-4.07-6.74v8.22h-3v-14h2.68l5.24,8.7,5.08-8.7h2.66v14h-3.01Z"/><path class="cls-1" d="m239.23,34.01h-6.5l-1.24,3h-3.32l6.24-14h3.2l6.26,14h-3.4l-1.24-3Zm-1-2.46l-2.23-5.36-2.22,5.36h4.45Z"/><path class="cls-1" d="m247.53,25.65h-4.48v-2.64h12.2v2.64h-4.48v11.36h-3.24v-11.36Z"/><path class="cls-1" d="m257,23.01h3.24v14h-3.24v-14Z"/><path class="cls-1" d="m266.4,36.31c-1.13-.6-2.08-1.49-2.74-2.59-1.32-2.3-1.32-5.12,0-7.42.66-1.1,1.61-1.99,2.74-2.59,1.21-.64,2.56-.96,3.93-.94,1.37-.02,2.71.3,3.92.94,3.48,1.86,4.8,6.18,2.94,9.66-.67,1.25-1.69,2.27-2.94,2.94-1.21.64-2.55.96-3.92.94-1.37.02-2.72-.3-3.93-.94Zm6.17-2.39c.66-.37,1.21-.92,1.57-1.59.76-1.45.76-3.19,0-4.64-.36-.67-.91-1.22-1.57-1.59-1.4-.76-3.08-.76-4.48,0-.66.37-1.21.92-1.57,1.59-.76,1.45-.76,3.19,0,4.64.36.67.91,1.22,1.57,1.59,1.4.76,3.08.76,4.48,0Z"/><path class="cls-1" d="m293.27,23.01v14h-2.66l-7-8.5v8.5h-3.2v-14h2.68l7,8.5v-8.5h3.18Z"/><path class="cls-1" d="m146.8,56.32c-1.12-.6-2.06-1.49-2.72-2.58-1.31-2.32-1.31-5.14,0-7.46.66-1.09,1.6-1.98,2.72-2.58,1.2-.63,2.54-.95,3.9-.93,1.13-.01,2.24.2,3.28.64.96.41,1.81,1.04,2.48,1.84l-2.08,1.92c-.86-1.05-2.16-1.66-3.52-1.64-.81-.01-1.62.18-2.33.57-.65.38-1.18.93-1.53,1.59-.77,1.45-.77,3.19,0,4.64.37.67.92,1.22,1.58,1.59.71.39,1.52.58,2.33.57,1.37.02,2.66-.6,3.52-1.66l2.08,1.92c-.68.81-1.54,1.45-2.51,1.86-2.32.94-4.93.84-7.17-.29h-.03Z"/><path class="cls-1" d="m169.48,54.41v2.6h-10.85v-14h10.58v2.6h-7.35v3h6.49v2.52h-6.49v3.28h7.62Z"/><path class="cls-1" d="m184.89,43.01v14h-2.65l-7-8.5v8.5h-3.21v-14h2.68l7,8.5v-8.5h3.18Z"/><path class="cls-1" d="m191.12,45.65h-4.49v-2.64h12.2v2.64h-4.48v11.36h-3.23v-11.36Z"/><path class="cls-1" d="m211.41,54.41v2.6h-10.84v-14h10.58v2.6h-7.36v3h6.5v2.52h-6.5v3.28h7.62Z"/><path class="cls-1" d="m222.91,57.01l-2.7-3.9h-3v3.9h-3.21v-14h6.06c1.11-.02,2.21.19,3.23.62,1.79.74,2.93,2.52,2.85,4.46.08,1.94-1.08,3.71-2.88,4.42l3.14,4.5h-3.49Zm-.81-10.73c-.65-.46-1.44-.68-2.23-.63h-2.63v4.88h2.63c.8.06,1.59-.17,2.23-.64,1-.99,1-2.61,0-3.61,0,0,0,0,0,0Z"/><path class="cls-1" d="m9.68,58.01c-3.57-1.08-6.87-2.92-9.68-5.38l3.1-6.53c2.52,2.18,5.44,3.84,8.59,4.91,3.45,1.25,7.1,1.89,10.77,1.89,4.86,0,8.49-.83,10.89-2.48,2.29-1.4,3.68-3.9,3.65-6.58.07-1.85-.66-3.63-2-4.91-1.4-1.32-3.06-2.31-4.88-2.92-1.92-.67-4.65-1.42-8.16-2.26-3.63-.82-7.2-1.88-10.69-3.18-2.68-1.05-5.07-2.73-6.95-4.91-1.93-2.2-2.9-5.18-2.9-8.92-.03-2.99.83-5.93,2.48-8.43,1.87-2.68,4.47-4.77,7.5-6C15.35.68,19.6-.11,23.88.01c3.45,0,6.89.45,10.22,1.34,3.08.77,6.01,2.08,8.64,3.86l-2.74,6.7c-2.44-1.56-5.1-2.76-7.88-3.56-2.67-.79-5.43-1.2-8.21-1.22-4.75,0-8.31.87-10.68,2.6-2.25,1.49-3.59,4.01-3.56,6.7-.07,1.85.66,3.64,2,4.91,1.45,1.31,3.15,2.31,5,2.93,2.65.89,5.36,1.63,8.09,2.22,3.61.82,7.17,1.88,10.64,3.18,2.66,1.05,5.03,2.72,6.92,4.86,2.02,2.47,3.05,5.61,2.89,8.8.02,3-.85,5.93-2.52,8.42-1.89,2.71-4.55,4.79-7.62,6-4,1.61-8.3,2.38-12.61,2.26-4.34.03-8.66-.65-12.78-2Z"/><path class="cls-1" d="m57.4.68h8.38v58.66h-8.38V.68Z"/><path class="cls-1" d="m93.73,56.11c-4.61-2.49-8.46-6.2-11.11-10.72-2.71-4.67-4.1-9.98-4.02-15.38-.08-5.39,1.3-10.71,4-15.38,2.67-4.53,6.53-8.24,11.17-10.72C98.66,1.28,104.14-.07,109.69.01c4.3-.05,8.57.73,12.57,2.31,3.74,1.48,7.07,3.82,9.74,6.82l-5.45,5.28c-4.27-4.58-10.29-7.11-16.55-6.95-4.13-.06-8.2.95-11.82,2.93-3.42,1.89-6.25,4.69-8.18,8.09-2.01,3.5-3.05,7.48-3,11.52-.05,4.04.99,8.02,3,11.52,1.95,3.41,4.81,6.21,8.25,8.09,3.6,1.96,7.65,2.97,11.75,2.93,6.25.13,12.25-2.42,16.5-7l5.5,5.24c-2.68,3.02-6.02,5.37-9.76,6.87-4.01,1.61-8.31,2.4-12.63,2.35-5.54.08-11.01-1.26-15.88-3.9Z"/><path class="cls-1" d="m116.5,29.85c.86.93,1.28,2.09,1.28,3.47,0,1.07-.28,2.05-.84,2.95-.56.9-1.41,1.62-2.55,2.16-1.14.54-2.55.81-4.2.81-1.29,0-2.56-.17-3.81-.51s-2.31-.83-3.18-1.45l1.65-3.25c.7.52,1.51.93,2.42,1.22.92.29,1.86.43,2.82.43,1.06,0,1.9-.21,2.51-.62.61-.41.92-.99.92-1.74,0-1.5-1.14-2.25-3.43-2.25h-1.94v-2.8l3.77-4.27h-7.81v-3.4h12.83v2.75l-4.14,4.72c1.61.26,2.84.86,3.69,1.79Z"/></svg>