<?xml version="1.0" encoding="UTF-8"?><svg id="Ebene_1" xmlns="http://www.w3.org/2000/svg" width="132" height="60.02" viewBox="0 0 132 60.02"><defs><style>.cls-1{fill:#fff;}</style></defs><path class="cls-1" d="m9.68,58.01c-3.57-1.08-6.87-2.92-9.68-5.38l3.1-6.53c2.52,2.18,5.44,3.84,8.59,4.91,3.45,1.25,7.1,1.89,10.77,1.89,4.86,0,8.49-.83,10.89-2.48,2.29-1.4,3.68-3.9,3.65-6.58.07-1.85-.66-3.63-2-4.91-1.4-1.32-3.06-2.31-4.88-2.92-1.92-.67-4.65-1.42-8.16-2.26-3.63-.82-7.2-1.88-10.69-3.18-2.68-1.05-5.07-2.73-6.95-4.91-1.93-2.2-2.9-5.18-2.9-8.92-.03-2.99.83-5.93,2.48-8.43,1.87-2.68,4.47-4.77,7.5-6C15.35.68,19.6-.11,23.88.01c3.45,0,6.89.45,10.22,1.34,3.08.77,6.01,2.08,8.64,3.86l-2.74,6.7c-2.44-1.56-5.1-2.76-7.88-3.56-2.67-.79-5.43-1.2-8.21-1.22-4.75,0-8.31.87-10.68,2.6-2.25,1.49-3.59,4.01-3.56,6.7-.07,1.85.66,3.64,2,4.91,1.45,1.31,3.15,2.31,5,2.93,2.65.89,5.36,1.63,8.09,2.22,3.61.82,7.17,1.88,10.64,3.18,2.66,1.05,5.03,2.72,6.92,4.86,2.02,2.47,3.05,5.61,2.89,8.8.02,3-.85,5.93-2.52,8.42-1.89,2.71-4.55,4.79-7.62,6-4,1.61-8.3,2.38-12.61,2.26-4.34.03-8.66-.65-12.78-2Z"/><path class="cls-1" d="m57.4.68h8.38v58.66h-8.38s0-58.66,0-58.66Z"/><path class="cls-1" d="m93.73,56.11c-4.61-2.49-8.46-6.2-11.11-10.72-2.71-4.67-4.1-9.98-4.02-15.38-.08-5.39,1.3-10.71,4-15.38,2.67-4.53,6.53-8.24,11.17-10.72C98.66,1.28,104.14-.07,109.69.01c4.3-.05,8.57.73,12.57,2.31,3.74,1.48,7.07,3.82,9.74,6.82l-5.45,5.28c-4.27-4.58-10.29-7.11-16.55-6.95-4.13-.06-8.2.95-11.82,2.93-3.42,1.89-6.25,4.69-8.18,8.09-2.01,3.5-3.05,7.48-3,11.52-.05,4.04.99,8.02,3,11.52,1.95,3.41,4.81,6.21,8.25,8.09,3.6,1.96,7.65,2.97,11.75,2.93,6.25.13,12.25-2.42,16.5-7l5.5,5.24c-2.68,3.02-6.02,5.37-9.76,6.87-4.01,1.61-8.31,2.4-12.63,2.35-5.54.08-11.01-1.26-15.88-3.9Z"/><path class="cls-1" d="m116.5,29.85c.86.93,1.28,2.09,1.28,3.47,0,1.07-.28,2.05-.84,2.95s-1.41,1.62-2.55,2.16-2.55.81-4.2.81c-1.29,0-2.56-.17-3.81-.51s-2.31-.83-3.18-1.45l1.65-3.25c.7.52,1.51.93,2.42,1.22.92.29,1.86.43,2.82.43,1.06,0,1.9-.21,2.51-.62s.92-.99.92-1.74c0-1.5-1.14-2.25-3.43-2.25h-1.94v-2.8l3.77-4.27h-7.81v-3.4h12.83v2.75l-4.14,4.72c1.61.26,2.84.86,3.69,1.79h0Z"/></svg>