<?xml version="1.0" encoding="UTF-8"?><svg id="Ebene_1" xmlns="http://www.w3.org/2000/svg" width="103.39mm" height="21.18mm" viewBox="0 0 293.08 60.02"><defs><style>.cls-1{fill:#6f6f6f;stroke-width:0px;}</style></defs><path class="cls-1" d="m150.43,14.24c-.62.31-1.31.45-2,.41-.84,0-1.68-.14-2.48-.4-.77-.23-1.49-.59-2.14-1.06l-1.13,2.44c.75.54,1.6.94,2.5,1.17,1.05.29,2.13.43,3.22.42,1.11.03,2.22-.17,3.25-.58.81-.32,1.5-.86,2-1.57.45-.64.68-1.41.68-2.19.04-.81-.22-1.6-.73-2.22-.48-.54-1.08-.96-1.76-1.2-.86-.31-1.73-.57-2.62-.76-.78-.16-1.55-.39-2.29-.69-.43-.16-.72-.55-.75-1-.02-.49.22-.95.63-1.2.61-.34,1.3-.49,2-.44,1.38,0,2.74.39,3.92,1.1l1-2.46c-.7-.42-1.46-.74-2.25-.92-.85-.22-1.73-.32-2.61-.32-1.11-.03-2.22.16-3.25.58-.81.31-1.51.86-2,1.57-.44.65-.68,1.42-.67,2.21-.04.81.22,1.61.74,2.24.47.55,1.07.96,1.74,1.22.86.3,1.74.55,2.63.76.55.12,1.1.27,1.64.44.37.11.71.29,1,.53.26.2.41.5.4.83,0,.46-.27.88-.67,1.09Z"/><polygon class="cls-1" points="159.81 17.01 159.81 3.01 156.54 3.01 156.56 17.01 159.81 17.01"/><polygon class="cls-1" points="166.01 17.01 169.25 17.01 169.25 5.65 173.72 5.65 173.72 3.01 161.52 3.01 161.52 5.65 166.01 5.65 166.01 17.01"/><polygon class="cls-1" points="186.31 14.41 178.69 14.41 178.69 11.13 185.18 11.13 185.18 8.61 178.69 8.61 178.69 5.61 186.04 5.61 186.04 3.01 175.46 3.01 175.46 17.01 186.31 17.01 186.31 14.41"/><rect class="cls-1" x="143.81" y="23.01" width="3.24" height="14"/><polygon class="cls-1" points="150.33 23.01 150.33 37.01 153.53 37.01 153.53 28.51 160.53 37.01 163.19 37.01 163.19 23.01 160 23.01 160 31.51 153 23.01 150.33 23.01"/><polygon class="cls-1" points="176.23 29.31 169.74 29.31 169.74 25.61 177.08 25.61 177.08 23.01 166.51 23.01 166.51 37.01 169.74 37.01 169.74 31.91 176.23 31.91 176.23 29.31"/><path class="cls-1" d="m192.78,33.37c1.86-3.48.54-7.8-2.94-9.66-1.21-.64-2.55-.96-3.92-.94-1.37-.02-2.72.3-3.93.94-1.25.67-2.27,1.69-2.94,2.94-1.86,3.48-.54,7.8,2.94,9.66,1.21.64,2.56.96,3.93.94,1.37.02,2.71-.3,3.92-.94,1.25-.67,2.27-1.69,2.94-2.94Zm-4.61.55c-1.4.76-3.09.76-4.49,0-.66-.37-1.2-.92-1.56-1.59-.77-1.45-.77-3.19,0-4.64.36-.67.9-1.22,1.56-1.59,1.4-.76,3.09-.76,4.49,0,.66.37,1.2.92,1.56,1.59.77,1.45.77,3.19,0,4.64-.36.67-.9,1.22-1.56,1.59Z"/><path class="cls-1" d="m204.94,37.01h3.46l-3.14-4.5c.86-.36,1.6-.96,2.13-1.73.52-.8.78-1.74.75-2.69.03-.95-.23-1.89-.74-2.7-.51-.78-1.25-1.4-2.11-1.76-1.02-.43-2.12-.65-3.23-.62h-6.05v14h3.23v-3.9h3l2.7,3.9Zm-5.68-6.48v-4.88h2.64c.79-.06,1.58.17,2.22.63.03.02.05.05.08.08.96,1,.92,2.58-.08,3.53-.64.47-1.43.7-2.22.64h-2.64Z"/><polygon class="cls-1" points="218.73 31.71 213.49 23.01 210.81 23.01 210.81 37.01 213.81 37.01 213.81 28.79 217.88 35.53 219.34 35.53 223.46 28.61 223.46 37.01 226.47 37.01 226.47 23.01 223.81 23.01 218.73 31.71"/><path class="cls-1" d="m234.22,23.01l-6.24,14h3.32l1.24-3h6.5l1.24,3h3.4l-6.26-14h-3.2Zm-.63,8.54l2.22-5.36,2.23,5.36h-4.45Z"/><polygon class="cls-1" points="242.86 25.65 247.34 25.65 247.34 37.01 250.58 37.01 250.58 25.65 255.06 25.65 255.06 23.01 242.86 23.01 242.86 25.65"/><rect class="cls-1" x="256.81" y="23.01" width="3.24" height="14"/><path class="cls-1" d="m274.06,23.71c-1.21-.64-2.55-.96-3.92-.94-1.37-.02-2.72.3-3.93.94-1.13.6-2.08,1.49-2.74,2.59-1.32,2.3-1.32,5.12,0,7.42.66,1.1,1.61,1.99,2.74,2.59,1.21.64,2.56.96,3.93.94,1.37.02,2.71-.3,3.92-.94,1.25-.67,2.27-1.69,2.94-2.94,1.86-3.48.54-7.8-2.94-9.66Zm-.11,8.62c-.36.67-.91,1.22-1.57,1.59-1.4.76-3.08.76-4.48,0-.66-.37-1.21-.92-1.57-1.59-.76-1.45-.76-3.19,0-4.64.36-.67.91-1.22,1.57-1.59,1.4-.76,3.08-.76,4.48,0,.66.37,1.21.92,1.57,1.59.76,1.45.76,3.19,0,4.64Z"/><polygon class="cls-1" points="289.9 23.01 289.9 31.51 282.9 23.01 280.22 23.01 280.22 37.01 283.42 37.01 283.42 28.51 290.42 37.01 293.08 37.01 293.08 23.01 289.9 23.01"/><path class="cls-1" d="m150.72,54.49c-.81.01-1.62-.18-2.33-.57-.66-.37-1.21-.92-1.58-1.59-.77-1.45-.77-3.19,0-4.64.35-.66.88-1.21,1.53-1.59.71-.39,1.52-.58,2.33-.57,1.36-.02,2.66.59,3.52,1.64l2.08-1.92c-.67-.8-1.52-1.43-2.48-1.84-1.04-.44-2.15-.65-3.28-.64-1.36-.02-2.7.3-3.9.93-1.12.6-2.06,1.49-2.72,2.58-1.31,2.32-1.31,5.14,0,7.46.66,1.09,1.6,1.98,2.72,2.58h.03c2.24,1.13,4.85,1.23,7.17.29.97-.41,1.83-1.05,2.51-1.86l-2.08-1.92c-.86,1.06-2.15,1.68-3.52,1.66Z"/><polygon class="cls-1" points="161.67 51.13 168.16 51.13 168.16 48.61 161.67 48.61 161.67 45.61 169.02 45.61 169.02 43.01 158.44 43.01 158.44 57.01 169.29 57.01 169.29 54.41 161.67 54.41 161.67 51.13"/><polygon class="cls-1" points="181.52 51.51 174.52 43.01 171.84 43.01 171.84 57.01 175.05 57.01 175.05 48.51 182.05 57.01 184.7 57.01 184.7 43.01 181.52 43.01 181.52 51.51"/><polygon class="cls-1" points="186.44 45.65 190.93 45.65 190.93 57.01 194.16 57.01 194.16 45.65 198.64 45.65 198.64 43.01 186.44 43.01 186.44 45.65"/><polygon class="cls-1" points="203.6 51.13 210.1 51.13 210.1 48.61 203.6 48.61 203.6 45.61 210.96 45.61 210.96 43.01 200.38 43.01 200.38 57.01 211.22 57.01 211.22 54.41 203.6 54.41 203.6 51.13"/><path class="cls-1" d="m225.95,48.09c.08-1.94-1.06-3.72-2.85-4.46-1.02-.43-2.12-.64-3.23-.62h-6.06v14h3.21v-3.9h3l2.7,3.9h3.49l-3.14-4.5c1.8-.71,2.96-2.48,2.88-4.42Zm-4.04,1.8c-.64.47-1.43.7-2.23.64h-2.63v-4.88h2.63c.79-.05,1.58.17,2.23.63h0c.99,1,.99,2.62,0,3.61Z"/><path class="cls-1" d="m35.4,29.67c-3.47-1.3-7.03-2.36-10.64-3.18-2.73-.59-5.44-1.33-8.09-2.22-1.85-.62-3.55-1.62-5-2.93-1.34-1.27-2.07-3.06-2-4.91-.03-2.69,1.31-5.21,3.56-6.7,2.37-1.73,5.93-2.6,10.68-2.6,2.78.02,5.54.43,8.21,1.22,2.78.8,5.44,2,7.88,3.56l2.74-6.7c-2.63-1.78-5.56-3.09-8.64-3.86C30.77.46,27.33.01,23.88.01c-4.28-.12-8.53.67-12.48,2.3-3.03,1.23-5.63,3.32-7.5,6-1.65,2.5-2.51,5.44-2.48,8.43,0,3.74.97,6.72,2.9,8.92,1.88,2.18,4.27,3.86,6.95,4.91,3.49,1.3,7.06,2.36,10.69,3.18,3.51.84,6.24,1.59,8.16,2.26,1.82.61,3.48,1.6,4.88,2.92,1.34,1.28,2.07,3.06,2,4.91.03,2.68-1.36,5.18-3.65,6.58-2.4,1.65-6.03,2.48-10.89,2.48-3.67,0-7.32-.64-10.77-1.89-3.15-1.07-6.07-2.73-8.59-4.91l-3.1,6.53c2.81,2.46,6.11,4.3,9.68,5.38,4.12,1.35,8.44,2.03,12.78,2,4.31.12,8.61-.65,12.61-2.26,3.07-1.21,5.73-3.29,7.62-6,1.67-2.49,2.54-5.42,2.52-8.42.16-3.19-.87-6.33-2.89-8.8-1.89-2.14-4.26-3.81-6.92-4.86Z"/><rect class="cls-1" x="57.4" y=".68" width="8.38" height="58.66"/><path class="cls-1" d="m126.55,14.42l5.45-5.28c-2.67-3-6-5.34-9.74-6.82C118.26.74,113.99-.04,109.69.01c-5.55-.08-11.03,1.27-15.92,3.9-4.64,2.48-8.5,6.19-11.17,10.72-2.7,4.67-4.08,9.99-4,15.38-.08,5.4,1.31,10.71,4.02,15.38,2.65,4.52,6.5,8.23,11.11,10.72,4.87,2.64,10.34,3.98,15.88,3.9,4.32.05,8.62-.74,12.63-2.35,3.74-1.5,7.08-3.85,9.76-6.87l-5.5-5.24c-4.25,4.58-10.25,7.13-16.5,7-4.1.04-8.15-.97-11.75-2.93-3.44-1.88-6.3-4.68-8.25-8.09-2.01-3.5-3.05-7.48-3-11.52-.05-4.04.99-8.02,3-11.52,1.93-3.4,4.76-6.2,8.18-8.09,3.62-1.98,7.69-2.99,11.82-2.93,6.26-.16,12.28,2.37,16.55,6.95Z"/><path class="cls-1" d="m112.6,35.06c-.61.41-1.45.62-2.51.62-.96,0-1.9-.14-2.82-.43-.91-.29-1.72-.7-2.42-1.22l-1.65,3.25c.87.62,1.93,1.11,3.18,1.45s2.52.51,3.81.51c1.65,0,3.06-.27,4.2-.81,1.14-.54,1.99-1.26,2.55-2.16.56-.9.84-1.88.84-2.95,0-1.38-.42-2.54-1.28-3.47h-.01c-.85-.92-2.08-1.52-3.69-1.78l4.14-4.72v-2.75h-12.83v3.4h7.81l-3.77,4.27v2.8h1.94c2.29,0,3.43.75,3.43,2.25,0,.75-.31,1.33-.92,1.74Z"/></svg>